<?xml version='1.0' encoding='utf-8'?>
<svg xmlns="http://www.w3.org/2000/svg" version="1.0" viewBox="0 0 512 512"> <g transform="translate(0 512) scale(.1 -.1)" fill="#171717" opacity="1"> <path d="m195 5101c32-31 236-171 249-171 26 0 395-420 550-626l68-89-39-6c-29-5-32-7-13-9 14-2 36-2 48-1 13 1 29-2 35-7 8-7 16-5 25 4 11 12 8 14-17 14s-34 8-60 53c-36 63-142 197-269 341-52 58-91 106-88 106 4 0 72-53 154-118 81-64 179-139 217-166 72-51 180-138 250-201l40-36-105 4c-58 2-94 1-80-3 14-5 65-8 113-9l88-1 134-132 134-133-20-62c-16-52-28-69-79-113-34-29-62-51-64-49s-21 32-44 65c-23 34-48 61-55 60-8 0-61 62-118 139-133 181-179 239-179 227 0-5 9-21 20-35s20-27 20-30-19-1-41 4c-23 6-47 8-53 6s17-9 51-16l62-12 77-107c43-59 91-126 107-148 16-23 33-57 37-75l8-34 1 33c1 17 4 32 9 32 4 0 29-34 56-76 39-63 47-82 42-108-5-27-4-28 6-11 6 11 12 21 13 23 2 2 76-44 165-102 88-59 158-101 155-96-4 6-77 57-164 114s-161 111-164 119c-4 10 14 31 53 62 57 46 74 70 100 146 7 20 19 36 25 35 7-1 44-27 81-57 38-30 104-81 147-113 42-32 77-61 77-65s-9-16-21-27c-20-18-21-18-87 51-37 39-95 101-130 138-34 37-62 65-62 61 0-12 170-202 214-237 48-40 106-142 150-265l26-72-53 26c-28 15-81 45-117 68-86 56-90 58-90 53 0-8 164-115 213-138 26-13 47-30 47-38 0-14 2-14 10-1 5 8 11 12 13 10 22-25 116-145 222-285 71-93 147-192 169-219 27-32 34-47 23-43s-31 9-45 12c-15 3 0-5 33-18s62-22 64-20c2 1-7 12-21 22-26 21-43 42-220 281-63 85-135 179-161 209-25 30-44 58-42 62 3 4-3 10-14 14-13 4-25 25-36 59-10 30-38 97-64 150l-47 95 20 26 21 26 102-71c56-39 158-105 227-148 75-46 173-119 245-182 65-58 118-106 116-108-1-1-39 19-84 46-52 32-106 56-153 67-40 10-76 22-79 28-4 6-13 6-23 0-12-7 8-15 78-32 84-20 108-31 208-98 181-121 211-158 202-255l-3-43 10 48c21 91 16 100-173 274-94 87-184 170-199 184-16 15-30 25-32 23-11-11-54 56-55 84-1 47-44 133-112 229-33 46-58 88-54 94 3 5 0 8-8 7-7-2-12 2-11 9 2 7-7 18-20 24-12 6-35 23-51 38-16 14-26 20-22 14 4-7 3-13-1-13-5 0-15 6-23 13-12 10-12 9-2-5 7-9 28-24 47-33s35-20 35-25c0-8-52-56-130-119-14-11-22-20-19-21 3 0 39 27 80 60 40 33 76 60 79 60 8 0 97-118 143-190 42-64 66-145 49-162s-439 272-629 430c-59 50-62 53-56 89 8 59 42 160 59 174 12 10 20 7 44-16 16-15 27-31 25-35-3-4 3-14 13-21 15-13 16-12 3 4-21 27-4 20 53-19 60-42 35-19-52 48-34 27-62 54-62 62 0 16 75 64 285 181 77 43 211 120 297 172 86 51 166 93 177 93 10 0 79-32 153-72 73-39 144-77 158-85 14-7 33-13 43-13 9 0 17-4 17-8 0-19-306-302-317-293-3 3-3 1 1-6 6-11-185-183-304-273-62-47-66-50-53-50 26 0 386 317 637 562 33 32 67 58 76 58 11 0 21-14 29-41 11-36 10-43-5-60-24-27-30-24-47 19-9 20-16 31-16 24-1-7 6-26 14-43 18-33 16-39-45-129-101-150-329-571-330-607 0-34-59 1-210 126-30 25-46 35-35 22s64-60 119-103c68-54 105-78 121-76 17 2 59-36 191-172l169-175 31-92c17-51 28-93 25-93s-17-9-31-20l-25-21 28 12c33 15 46 5 24-18-8-10-40-63-70-118-111-204-119-216-133-211-8 3-14 1-14-4 0-6 5-10 12-10 6 0 8-3 5-6-10-11-67 17-60 29 4 6 0 8-10 4-40-15-1237 391-1392 472-38 20-93 47-122 59-50 21-52 24-62 74-5 29-13 94-17 143-6 87-8 92-55 160-27 39-86 111-131 162-349 388-425 482-405 496 8 6 6 7-5 3-10-3-18-1-18 4 0 6-5 10-10 10-16 0 99-145 260-327 80-91 173-197 208-236 35-40 81-101 102-137 36-60 40-72 45-160 3-52 8-108 10-124l5-29-57 6c-59 5-227 43-647 143-125 30-230 53-233 51-4-5 48-21 59-19 5 1 8-2 8-8 0-5 8-7 17-3 10 3 15 2 10-2-4-5 29-28 74-52s102-57 126-74c25-16 47-28 50-26 4 5-116 80-202 126-22 12-31 19-20 16 11-4 99-27 195-51 96-25 192-50 214-55l39-11-6-75c-4-51-11-81-23-94-16-18-16-19 4-19 22 0 24 6 37 115 3 27 10 54 15 59 6 6 56 0 140-17 138-29 180-43 180-62 0-6 7-20 16-31 15-18 15-18 5 3-8 16-7 22 3 26 16 6 92-21 168-59l50-25-59-35c-32-19-77-55-101-79-52-54-42-55-273 26-92 32-184 60-205 62-22 3-104 31-184 62s-210 79-289 107c-80 27-152 52-160 56-9 3-13 2-10-2 3-3 92-38 198-76 227-82 411-158 411-170 0-5-63-138-140-295-132-271-247-482-330-605-41-62-60-97-33-62 70 91 227 363 356 617 83 165 156 310 160 321 4 12 17 24 28 27 10 3 17 2 14-2-2-4 12-15 31-24 48-23 57-21 14 4s-45 25 177-47c171-55 183-61 184-84s2-22 8 5c8 35 2 35 216 10 72-8 166-17 210-19 44-3 10 3-75 13-214 26-301 39-308 45-17 18 148 137 179 129 10-3 19-10 19-15s4-7 8-4c5 3 87-24 183-60 96-37 237-88 313-114s130-50 120-52 15-7 56-11c44-4 110-19 160-38 76-28 361-118 465-147 22-6 49-17 59-25 17-12 17-16 2-50-8-20-13-37-10-37 8 0-38-46-123-122-126-112-333-337-340-369-3-15-11-30-18-33-7-2-60-41-118-85-116-88-165-117-177-104-34 39-178 268-173 276 3 5 1 7-5 3-6-3-20 7-31 23-26 36-27 48-3 30 15-13 16-12 3 3-7 10-18 15-24 11s-8 0-4 10c4 11-9 32-42 66-27 27-81 94-121 148s-84 109-96 123c-63 68-126 149-140 180-27 57-125 174-134 160-4-7-17-10-29-7-20 5-21 2-20-66 0-40 4-92 9-117 5-30 6-13 2 52l-5 97 27 12c23 11 29 10 50-10 13-12 34-42 46-66 13-24 59-88 102-142 73-90 107-134 275-355 32-42 71-100 86-127l28-50-28-15c-15-8-23-15-18-16 6 0 20 7 32 15 22 15 24 13 65-52 23-37 62-97 86-133 26-39 39-66 32-68-35-12-376-338-391-373-13-32-32-34-37-3-4 28-39 47-95 50-27 1-51 5-54 8-4 3-16 6-28 6-15 0-42 22-80 65-63 72-88 88-188 120l-67 22 137 85c171 107 154 98 320 157 175 62 254 93 250 97-2 2-62-18-133-45-71-26-159-58-197-70-60-20-145-68-334-187-63-39-76-54-49-54 8 0 52-12 96-26 75-23 86-31 150-97l69-72-57-17c-31-10-109-24-172-33-63-8-136-19-162-23-32-6-51-6-59 2-9 8-9 6 0-11 6-12 11-47 11-77 0-33 4-56 11-56 5 0 7-5 3-12-5-7-3-8 5-4 18 11 43-15 127-131 41-56 80-103 86-105 8-3 1-44-21-132-17-71-30-130-28-133 3-2 19 49 36 114 18 65 34 123 36 129s36 35 77 64l73 52 95-7c336-23 813-86 858-114 18-11-12-61-54-89-57-37-337-131-713-238-386-110-424-119-439-110-11 6 12 144 26 158 5 5-2 30-14 56-13 26-42 115-64 197-23 83-50 161-60 175-47 60-54 85-79 284-6 48-13 63-34 78-15 11-25 24-21 29 3 5-6 4-20-2-22-10-30-8-61 15-30 23-34 30-24 47 13 25 34 33 165 61 59 12 102 24 96 26-11 3-183-32-215-44-10-3-17-1-17 4 0 6 111 176 246 379 236 353 245 369 235 398s-10 29-6 2c5-23-15-58-118-210-68-100-159-238-202-307s-87-133-97-142c-11-10-18-18-14-18 12 0-54-96-90-130-20-19-34-30-31-24 10 18-27 68-94 125-34 30-82 74-106 98s-43 40-43 35-26 17-57 48c-51 49-132 99-209 128-45 18-24 3 59-40 48-25 115-72 162-114 44-40 114-99 155-133 97-78 106-89 91-107-10-12-27-8-109 26-363 152-402 166-402 149 0-9 17-33 37-52 33-31 34-31 15-5-12 16-20 31-18 34 3 2 58-18 123-46 65-27 156-64 203-82s95-38 107-44l23-11-40-65c-22-36-48-75-56-88-9-12-14-22-11-22s33 40 66 89l59 90 102-61c113-68 136-92 126-140-3-17-2-36 3-42s14-44 20-84c11-72 29-121 57-152 7-9 42-99 77-202l64-186-27-106c-15-59-30-109-33-112s-76 39-164 94c-473 296-577 364-589 383-4 7 4 20 17 31s18 17 11 13c-15-8-15 0-1 26 5 11 14 17 19 14 6-4 7 1 3 11-4 11-3 15 5 10 6-3 14-1 18 5 4 8 3 9-4 5-16-10-15-1 4 37l15 32-21-25c-11-14-47-78-79-142l-58-118-27 70c-27 68-46 96-46 67 0-8 14-47 30-87l30-74-31-40-31-41 32 33c17 19 34 31 38 28 3-4 5-131 3-284-1-152 0-275 2-272 9 8 16 163 16 348 1 172 1 173 22 167 23-8 20 3-9 37-13 15-12 24 8 73 12 30 25 55 27 55 5 0 583-364 681-428 28-19 52-38 52-43 0-4-44-38-97-75-108-74-253-187-353-274-36-31-90-76-120-99-54-42-79-71-63-71 5 0 61 43 125 95s123 95 130 95c16 0 174 95 183 111 4 5-25-11-63-36-39-24-83-50-98-55l-28-11 19 22c41 45 305 239 305 224 0-4-28-37-62-73-34-37-14-20 44 37l106 104 22-44c12-24 42-74 67-110 38-56 43-70 34-87-6-12-19-20-30-19-18 1-449-208-486-237-11-8 88 39 220 104 131 66 243 120 247 120 23 0 48-68 50-135 1-41 3-53 5-30 5 64 12 85 28 85 8 0 16-13 19-33 3-17 9-54 15-82 9-47 9-45 4 20-3 39-6 74-7 80 0 5 9 11 22 13 27 4 298-124 306-144 3-8 13-14 22-14 14 0 14 3 4 15-7 9-10 18-7 21s135 77 294 165c298 164 312 170 633 268 36 11 49 18 30 14-62-10-273-74-350-106-41-17-176-87-300-155s-250-137-280-152l-55-28-160 77c-115 56-164 84-172 102l-12 24 5-28c5-22 3-27-13-27-10 0-24 9-31 21-11 18-11 24 4 40 14 15 20 17 27 7 6-10 8-9 4 3-4 11 28 50 96 117l102 101 239 111c132 60 241 108 243 107 2-2-48-44-110-92-102-81-336-279-411-348l-31-29 37 29c20 15 101 82 180 149 78 66 181 150 228 187 101 78 151 121 130 111-8-4-11-3-7 1 4 5 13 10 20 11s36 16 64 33c27 17 56 31 63 31s51-22 99-49c47-27 163-90 256-141 94-51 174-96 179-100 14-14-61-157-98-185-18-13-73-47-122-73-84-46-346-223-340-230 2-1 66 41 142 93 77 53 178 117 227 142 103 53 155 106 187 192 18 49 35 71 54 71 2 0 6-87 10-193 6-180 17-292 31-305 7-7 25 17 25 33 0 6-4 3-9-4-8-12-11-10-15 10-22 94-35 452-18 463 13 8 56-43 80-94 12-25 40-65 63-90l40-45-44 65c-61 90-63 95-45 87 9-3 21 0 27 6 8 8 19 1 44-28 17-22 62-73 99-112 37-40 106-122 153-183 80-101 95-118 95-106 0 8-122 160-212 263-48 56-88 104-88 107 0 8 141-116 304-267 65-59 121-107 125-107 10 0 21 25 53 120 15 41 50 127 78 190 61 132 142 373 134 395-3 8-19 21-35 29l-29 14 18-23c9-13 20-21 24-18 26 15-38-198-108-357-20-47-55-131-78-187l-42-102-47 30c-26 16-53 29-59 29-7 0-1-6 13-14 63-33 98-62 89-76-12-19-30-5-195 146-153 141-245 220-245 209 0-15-48 52-51 71-5 27 78 129 203 250 157 153 171 159 256 125 64-26 194-75 207-79 33-10-69 40-110 53-27 9-68 25-90 35-88 39-97 37-175-26-38-32-70-62-70-67 0-4-5-5-12-1-6 4-8 3-5-3 3-5-12-27-34-49-22-21-74-81-116-131-80-98-85-101-127-55-17 20-17 21 13 37 17 8 31 18 31 20 0 3-17-3-38-14-61-31-84-31-93 2-4 16-36 67-71 115-115 159-178 256-178 274 0 10 7 21 16 25 8 3 91-4 182-16 92-12 244-30 339-41 94-10 184-22 200-26 25-6 27-5 13 9-9 10-40 19-75 22-132 13-671 87-685 94-22 11-24 45-6 99 9 26 30 123 46 217 17 93 33 171 35 174 3 2-2 12-10 21-13 14-9 31 35 156 28 76 54 144 58 150s25 38 48 70c37 54 82 159 72 170-3 2-12-21-22-51-9-31-38-83-64-117-39-51-63-70-137-111-115-63-113-62-118-40-3 13-4 12-2-3 1-14-8-27-24-37-29-17-99-87-88-87 4 0 27 18 52 41 39 36 254 163 262 155 2-2-19-64-47-139-27-76-50-149-50-164 0-16-12-77-26-138-13-60-25-121-24-134 0-14-7-60-15-104s-15-81-15-83-8-4-17-4c-15 0-16-2-3-10 28-18-2-24-32-7-31 18-275 61-403 72-33 3-167 14-298 24-132 11-241 22-244 24-2 3 7 27 20 54 23 45 174 203 194 203 4 0 48-40 97-89 49-50 92-89 95-88s27-21 53-48c25-27 49-47 52-44 4 3-52 63-124 133-71 70-130 130-130 135 0 18 66 90 198 214 143 135 204 183 220 173 6-3 32-43 58-89 26-45 75-125 109-177 33-52 76-121 95-152 19-32 45-70 57-85 23-28-90 168-152 262-18 28-58 96-90 152-52 95-62 132-30 119 7-2 42 19 77 48s93 74 128 100l65 48 6-48 6-49 2 55c5 109-7 89 143 246 43 45 78 81 78 79 0-1 42 40 94 92 52 51 100 93 106 93 16 0 5-46-31-134-32-78-36-96-13-53l15 27 42-29c78-54 92-75 131-185 21-59 40-105 42-103s-12 50-32 106c-21 56-34 104-31 107s52-11 109-31c92-33 179-59 260-79 34-8 94-59 112-95 14-28 61-198 96-350 12-52 46-161 76-244 30-82 52-153 49-157-3-5-43-37-88-71s-81-66-79-72c2-5-4-7-13-3-9 3-14 2-11-3 3-4-8-18-25-30l-30-22-41 32c-22 18-57 54-78 81-35 44-42 65-85 245-26 109-53 218-59 243l-13 45 1-52c1-28 4-46 8-40s5-22 4-63c-3-59-2-63 3-22 6 52 6 51 47-117l40-170-37 22-38 22-4 90-3 90-2-101-2-100-37-18c-54-26-146-60-323-121-245-85-251-87-247-91 8-8 506 170 577 206 33 17 37 17 66 1 17-9 72-56 122-105l90-90-33-26c-66-53-147-131-142-137 3-3 43 29 89 71 65 60 84 73 87 59 2-10 17-37 33-61 16-23 49-80 74-125 24-45 44-78 44-74 0 11-44 98-97 190-43 75-44 78-29 102 9 14 34 37 56 51 22 15 40 30 40 34 0 14 140 121 150 115 19-12 9-26-40-57-60-37-65-46-10-18 52 27 64 25 94-11 29-35 35-22 9 18-18 27-75 184-138 383-18 58-52 183-75 278l-41 173 15 69c9 38 16 80 16 93 0 14 6 30 14 36 11 10 47-9 178-95 293-192 388-256 388-262 0-3-27-41-61-84-33-43-58-78-55-78 4 0 37 41 113 140 10 13 20 7 69-40l58-55-48 55c-56 64-67 87-54 115 7 16 6 15-9-3l-19-23-110 72c-171 113-355 233-401 262l-42 27 25 37c13 20 27 48 30 62s21 64 41 109c19 46 32 86 30 88-9 10-39-50-68-137-16-50-38-104-48-120l-18-30-83 56c-46 30-87 55-92 55s-7 4-4 8c3 5-20 30-52 56l-57 48 54-51c30-28 51-51 46-51-12 0-205 108-241 136-23 17-33 34-38 64-4 28-19 54-48 86l-41 44 84 83c69 68 275 280 484 500 22 23 46 53 53 67 20 39 188 137 643 375 128 67 234 131 307 186 61 46 110 85 108 86-2 2-57-35-122-81-66-47-189-121-274-165-85-45-190-101-232-125-43-24-78-42-78-39s28 35 63 71l62 67-60-55c-33-31-77-69-98-84-44-34-260-156-266-150-5 4 228 397 241 405 5 3 3 9-6 12-9 4-16 2-16-3 0-23-232-399-247-400-6 0-31 15-55 33-60 45-93 117-116 251l-19 110-47 39c-44 38-48 44-96 195-27 87-64 187-82 224l-31 67 57 68c121 146 131 158 115 146-9-7-51-56-95-108l-79-95-13 31c-7 16-10 35-6 40 3 6-4 13-15 16-18 5-19 8-9 22 12 14 11 14-4 2-10-7-15-18-12-23 11-17-69 3-131 32-33 16-105 55-160 86s-107 56-117 56c-9 0-90-46-181-100-152-92-472-275-576-329-30-16-62-23-98-23-51 0-55 2-74 35-12 19-23 35-26 35s4-16 16-35l20-35h-88-89l-88 58c-123 81-366 260-504 371-63 51-124 97-136 101-27 11-187 182-222 237-15 24-32 43-38 43s-38 25-72 56c-34 30-68 54-76 52-7-2 31-40 85-87 93-78 117-107 71-82-10 5-67 46-126 90-103 78-142 102-101 62zm2794-808c16-32 49-125 75-208 44-146 47-151 96-197l50-47 20-113c10-62 22-127 26-144 5-29 2-34-37-61-24-16-67-42-95-57-29-16-58-41-69-59-41-72-139-217-147-217-5 0-17 15-26 32-9 18-93 111-186 206-161 165-168 174-162 205 18 94 380 717 417 717 5 0 22-26 38-57zm-1292-125c-3-13-14-50-25-83-12-33-23-72-27-87-3-16-9-28-14-28s-52 43-105 95c-64 63-94 100-90 110 5 12 29 15 136 15 130 0 130 0 125-22zm1631-675c32-26 61-50 65-54 5-4 3-17-4-30s-12-28-11-33c2-5-124-135-279-290-281-281-281-281-243-211 61 114 92 153 147 189 54 35 331 269 357 302 8 10-4 3-27-16-373-311-370-308-388-289-7 8-19 35-28 61-14 42-14 48 0 60 17 14 104 141 139 202 17 29 47 54 116 96 51 32 95 58 96 59 2 1 29-20 60-46zm-536-830c29-32 58-85 58-107 0-12-14-6-52 21-74 52-72 48-58 82 15 38 20 38 52 4zm38-140c0-7 6-10 13-7 19 7 66-33 138-116 35-41 96-106 135-145l72-71-48-56-70 16c-38 9-93 26-122 37-29 12-84 32-122 45-95 33-102 45-65 110 16 28 29 55 29 60s-16-19-36-54c-23-40-40-60-47-55-43 25-77 58-77 75 0 15 48 162 75 230 6 14 14 11 66-20 32-21 59-42 59-49zm427-239c57-36 61-40 47-58-8-11-14-40-14-64v-44l-57 49c-67 56-212 202-254 254l-29 37 123-67c67-37 150-85 184-107zm-18-141c21-25 31-49 31-70 0-18-3-33-7-33-5 1-30 21-56 45-47 44-48 44-31 70 9 14 20 25 24 25 5 0 22-17 39-37zm-2694-523c3-5 2-10-4-10-5 0-13 5-16 10-3 6-2 10 4 10 5 0 13-4 16-10zm801-160 68-31-81-82c-52-52-92-104-111-142-26-52-41-68-99-106-37-25-73-45-80-44-6 0-42 41-79 90-37 50-84 108-104 130-28 30-39 51-43 87l-6 46 52 12c29 6 88 16 132 22 44 5 114 18 155 28 104 25 119 24 196-10zm66 9c18-10 25-30 11-28-5 0-30 11-58 25l-50 24 40-6c22-3 48-10 57-15zm153-169c33-33 57-60 54-60-2 0-31 27-64 60s-57 60-54 60c2 0 31-27 64-60zm669-314c-4-9-13-15-20-12s-16 1-19-3c-2-5-15-11-27-14-20-6-18-2 10 24 17 16 32 35 32 42s6 5 15-4 13-23 9-33zm113-231c68-93 130-182 138-197 15-26 14-28-15-43-30-16-31-15-193 73-331 182-357 197-357 202 0 11 266 139 284 137 13-1 64-63 143-172zm-358 101c-2-3-115-56-249-119-525-246-683-327-667-344 3-2 34 11 68 29 35 18 69 35 74 37 6 2-28-33-74-78-47-44-85-80-86-78 0 1-12 20-27 42-37 58-98 176-98 191 0 8 10 16 23 19 12 3 44 10 72 15 108 23 746 210 845 248 102 38 128 47 119 38zm618-368c25-24 29-38 11-38-14 0-58 40-58 52 0 15 23 8 47-14z"/> <path d="m2807 2458c-9-23-15-43-13-45s11 15 20 38 15 43 13 45-11-15-20-38z"/> <path d="m370 5110c0-5 5-10 11-10 5 0 7 5 4 10-3 6-8 10-11 10-2 0-4-4-4-10z"/> <path d="m815 5100c10-11 20-20 22-20s-1 9-7 20-16 20-22 20-3-9 7-20z"/> <path d="m1122 5095c0-16 2-22 5-12 2 9 2 23 0 30-3 6-5-1-5-18z"/> <path d="m1785 5064c330-153 389-184 500-257 66-44 130-89 143-100 29-27 66-26 122 3 117 60 519 285 549 308 25 18 36 22 39 13 2-7 14 3 26 24 13 20 27 36 31 36 5-1 10 6 11 15 2 14 1 14-15 0-10-9-21-13-24-9-4 3-7-1-7-9 0-23-216-153-551-332-110-58-127-63-160-45-19 10-19 11 6 41 15 17 40 58 56 90 32 64 92 219 86 224-2 2-22-45-45-104-41-105-105-222-122-222-5 0-63 36-129 80l-120 80 26 67c14 38 29 79 33 93s11 34 16 44c5 13 4 17-3 13-6-4-14-19-18-34-3-15-20-63-36-105l-30-78-32 14c-18 8-124 57-237 110s-212 96-220 96 39-25 105-56z"/> <path d="m2606 5105c-9-26-7-32 5-12 6 10 9 21 6 23-2 3-7-2-11-11z"/> <path d="m3473 5063c-27-32-53-65-57-73-8-16 34 30 85 93 48 58 28 43-28-20z"/> <path d="m4463 5096c-33-43-255-290-287-319-24-22-28-30-16-34 23-9 159-143 180-179 11-17 24-55 29-85l10-54-2 60c-2 67-9 78-134 203l-63 63 137 156c170 192 187 213 175 213-6 0-19-11-29-24z"/> <path d="m4634 5108c24-13 21-27-28-125-53-106-132-296-175-416-32-91-39-175-20-242 7-24 7-20 5 20-2 28 0 73 4 100 15 94 109 335 256 660 2 6-10 11-27 11-24 1-28-1-15-8z"/> <path d="m3380 5090c-6-11-8-20-6-20 3 0 10 9 16 20s8 20 6 20c-3 0-10-9-16-20z"/> <path d="m3411 5030c-28-44-48-80-46-80 3 0 24 30 48 68 57 89 59 92 54 92-3 0-28-36-56-80z"/> <path d="m105 5060c3-14 17-71 30-128 27-118 71-410 62-418-3-3-22-1-42 6-26 8-46 27-74 68-41 61-81 102-81 84 0-6 5-14 11-17 5-4 30-35 55-68 36-49 42-63 29-65-17-4-87-75-94-96-2-6 16 8 41 32 24 23 47 42 50 42 4 0 16-30 29-67 25-79 46-123 58-123 4 0-6 27-22 59-38 78-30 100 11 28 17-31 33-61 34-68 2-6 15-24 31-39 15-16 27-35 27-44 0-22-65-166-169-374-50-100-91-185-91-189 1-13 161 295 216 415 29 62 54 109 57 105 14-24 172-644 192-756 4-20 11-39 15-42 23-14-195 844-220 869-21 21-7 23 60 8 76-16 95-12 65 16-18 16-18 16-6 0 11-15 11-18 0-18-30 1-131 29-144 40-8 7-35 48-60 91-25 44-50 77-55 74-6-3-7 0-4 8 4 11 15 12 47 6 23-4 48-8 55-9 7 0 20-9 29-19 9-11 21-17 27-15 14 5 257-74 495-162 95-36 175-63 177-61 5 5-256 104-526 200l-205 73-22 154c-25 177-57 332-79 387-8 21-12 27-9 13z"/> <path d="m401 5050c14-31 19-36 19-24 0 6-7 19-16 30-14 18-14 18-3-6z"/> <path d="m854 5040c8-20 18-64 22-98 3-35 9-61 11-58 12 11-11 144-28 167l-19 24 14-35z"/> <path d="m4670 5063c0-3 58-65 128-138 104-107 205-235 256-323 5-8-4-17-27-27-19-8-61-43-94-77-129-138-455-473-463-476-4-2-13 10-18 25-6 15-11 23-11 16-1-6 3-23 8-37 8-20 5-32-20-66-16-22-39-60-51-85-14-28-32-48-50-56-18-7-28-19-28-32 0-19 1-19 13-5 14 20 211 112 200 95-15-25-236-267-244-267-4 0-10 8-13 18-3 12-4 11-3-4 2-19-71-135-93-149-5-3-46 1-91 10-45 8-93 15-108 14-14 0 10-7 54-15s93-18 110-23l30-8-35-29c-19-16-57-52-85-81-59-60-318-225-510-323-74-38-183-84-252-106-68-21-123-42-123-47 0-4 3-6 8-6 4 1 67-57 140-130 74-72 131-131 128-131s-27 15-53 34c-54 38-181 107-231 124-33 11-33 11-17 42 8 16 13 30 11 30-3 0-12-13-21-30-15-29-18-30-80-30-55 0-65 3-66 18 0 14-2 14-8-3-6-15-20-21-57-26-27-3 10-4 83-2l132 3 104-53c58-30 125-68 150-86 28-19 52-28 62-25 11 5 18 0 22-14 3-11 10-19 17-16 6 2 34-13 63-34 65-50 221-147 393-247 137-80 448-271 463-285 5-4-3-31-17-59-15-28-24-51-21-51 2 0 16 23 30 50l26 51 45-33c25-18 48-36 51-41 3-4-7-26-22-48-30-46-178-145-210-141-15 2-17 1-6-6 18-12 6-32-20-32-20 0-26 15-9 25 6 4-37 35-94 70-57 34-124 76-148 92-59 40-79 49-46 21 16-13 82-60 148-103 65-44 120-83 120-86 0-4-69-47-153-96l-154-89-78 71c-56 51-76 76-70 86 6 11 5 11-5 2-16-14-143 92-326 272-68 66-119 113-114 105 14-25 219-221 323-309 94-80 97-84 81-102-9-11-20-19-24-19s-66 66-138 147c-72 82-150 166-173 188-24 22 3-9 58-70 56-60 133-148 173-193 63-74 70-86 58-102-55-76-58-83-20-40 26 28 44 41 49 34 4-6 29-38 56-72l47-61-87-54c-49-29-114-69-145-88-32-19-58-38-58-42 0-10 17-1 168 90 107 65 125 73 140 61s16-11 4 4c-15 19-16 18 163 123 55 32 129 76 165 97s67 33 68 28c2-6 7-8 12-5 11 7 24-51 14-66-4-7-3-9 3-6 5 3 18-10 27-31l18-36-69-66c-437-413-407-379-467-515l-13-29-37 64c-48 83-114 170-127 170-6 0 5-21 24-47 58-80 97-158 97-193 0-28-11-43-72-101l-73-69h-72c-39 0-75-4-78-10-4-6 24-10 77-10h84l12-34c11-29 10-41-3-72-8-20-13-39-11-41 2-3 10 12 17 31 7 20 16 36 19 36 20 0 51-38 71-87 12-32 39-89 58-128 26-53 36-89 41-146 4-42 10-81 13-86 4-7-46-44-125-94-73-45-140-88-148-96-12-11-12-13 5-13 10 0 75 35 144 79 137 85 165 101 180 101 5 0 22-37 36-83 15-45 32-86 38-92 7-7 8-5 4 6-26 77-47 163-40 170 4 4 88-35 185-87 98-53 185-94 193-92s-75 51-184 111l-199 107-7 63c-9 90-53 336-79 452-30 131-19 148 67 103 81-41 752-330 802-345l30-8 7-129c6-119 21-265 34-328 3-16 12-28 20-28 9 0 13 4 10 9-11 17-36 266-36 355v88l178-169c97-92 186-175 197-183s-32 34-95 95c-313 299-295 278-284 319 7 29 32 39 237 97 87 24 154 45 148 47-5 2-91-20-191-49-100-28-184-49-187-46s-18 45-35 94c-16 48-69 189-117 313-49 124-101 259-116 300-37 100-78 180-136 269-27 41-49 85-49 99 0 19 3 22 13 13 8-6 16-9 19-6s13-4 23-15 22-20 26-20c7 0 265-145 284-160 6-5 48-28 95-53 168-88 274-153 327-201 29-26 53-44 53-39 0 19-101 95-215 162-63 38-111 72-107 76 4 5 2 5-5 1s-32 3-55 15c-70 36-382 219-396 233-23 22 4 52 113 124 124 81 145 90 181 74 34-16 42-10 10 8-36 19-85 6-150-40-31-22-61-40-66-40-6 0-37-27-69-59-50-50-62-57-72-45-9 11-8 18 2 30 19 23 127 95 138 92 9-3 91 98 91 112 0 3 15 11 33 18 28 10 40 9 82-8 40-15 45-19 25-21-18-1-20-3-7-6 10-3 28 2 40 10 54 35 222 80 327 87l105 7-79 1c-73 2-78 3-65 19 13 17 12 17-6 2-11-9-54-26-95-38-41-11-96-27-122-35-27-8-48-11-48-6 0 19 111 127 253 247 84 69 154 128 155 129 2 1 2 10 0 19-2 11-46-21-153-113-157-134-236-215-263-269-18-38-20-38-68-18l-36 15 99 74c55 42 108 86 119 98 12 15 7 12-13-6l-31-28-5 23c-4 23-4 23-6-3-1-21-18-38-88-88l-86-62-76 41c-68 36-76 43-74 68 5 65 17 96 98 238 47 82 93 169 102 193 12 32 21 42 32 38 139-48 195-66 199-62 2 3-29 15-69 27-112 33-127 43-134 87-10 56-37 153-42 148-2-2 3-38 12-80l15-77-30-72c-16-40-53-110-80-157-75-127-111-204-119-257-5-33-11-47-21-45-15 3-43 20-365 207-115 67-254 148-309 180l-98 57 78 52c44 29 129 83 189 121 61 37 127 78 148 91 20 14 37 22 37 19s-12-28-26-56-21-49-17-46c5 3 19 28 32 56l24 49 220 102c121 56 257 115 304 132 46 17 82 32 80 34s-34-7-70-21c-37-14-67-22-67-19 0 4-6 2-12-4-7-5-98-49-203-97-104-48-203-94-219-102l-29-15 19 33c22 38 205 152 229 143 16-7 138 53 383 188 90 50 165 88 168 85 8-8-12-65-35-103-12-20-32-34-61-43-23-7-40-14-38-17 3-2 25 3 48 11 52 18 74 13 67-15-3-13-1-18 5-14 8 5 9-38 6-137-2-79-1-126 3-104s8 95 8 162l1 122 33 5c17 3 50 7 72 8l39 3 38-85c47-106 50-94 4 20-19 47-50 124-69 172l-35 87 64 36c55 31 86 55 70 55-3 0-29-14-58-31-67-40-75-41-116-12-19 12-39 23-44 23-19 0 3 55 59 150 31 52 59 97 63 100 6 5 34 68 35 80 1 3 15 33 33 68 18 34 30 62 27 62-4 0-68-119-70-130-1-10-89-166-115-205-15-22-37-59-49-82l-21-43-120 2c-65 1-122-1-126-5s-36-7-71-7h-64l17 28c37 64 324 342 473 460 84 67 150 122 145 122-15 0-232-170-330-258-53-48-119-105-147-127-29-23-66-61-85-85-18-25-46-62-63-82l-30-38-87-2c-48-1-64-3-37-5 28-1 73-7 100-13 57-11 296-20 250-9-17 4 23 7 97 8 118 1 129-1 153-21l25-23-20-33c-21-34-54-52-105-57-16-2-32-4-35-5-3 0 1-4 8-9 10-6-18-25-93-65-59-32-109-55-112-53-2 3 30 24 71 47 42 23 76 43 76 46 0 6-22-6-122-63-75-43-97-60-61-46 11 5 14 3 9-6-5-7-17-11-27-8s-22 1-25-4-32-23-64-39c-71-36-119-39-127-10-7 25-23 16-23-13 0-35-178-137-239-137-17 0-13 19 38 190 23 77 44 168 47 213l7 77h33c57 0 82-16 105-67 12-27 25-55 29-63s5-31 2-51c-2-23 1-40 8-44 10-6 11 1 6 31-5 28-4 35 3 24 6-8 11-10 11-4 0 36-76 204-93 204-5 0-5-4-2-10 4-6-14-10-48-10-57 0-72 6-58 24 4 6 19 43 32 81 19 55 35 81 75 120 28 28 98 104 156 170s125 137 149 158c24 22 157 115 294 209 275 186 260 176 254 183-3 2-116-71-250-163-302-206-489-311-489-274 0 17 61 100 126 173 38 42 168 178 288 302 158 163 227 227 248 231 30 6 77 51 78 75 0 10-7 8-23-7-13-12-26-22-30-22-3 0-29 33-56 73-27 39-63 90-81 112-36 46-260 276-260 268zm-28-1500c-28-39-107-112-94-88 9 18 102 115 110 115 2 0-6-12-16-27zm-552-197c0-2-9-6-20-9s-18-1-14 4c5 9 34 13 34 5zm54-78c-6-76-61-288-96-369l-19-47-192-91c-253-120-254-116-43 157 130 170 175 239 196 307 25 78 64 111 138 114 22 1 22-1 16-71zm841-19c9-26 3-31-29-27-25 3-26 4-11 26 20 28 32 28 40 1zm-1010-39c-17-47-32-69-223-320-74-96-141-188-149-205-8-16-34-50-57-74-40-44-31-41 35 10 19 14 52 33 74 42 22 8 112 50 199 91 88 42 161 74 163 72s-10-33-26-69c-28-63-32-67-126-124-53-32-129-81-170-110l-73-52-109 72c-76 50-141 105-221 186-62 62-110 116-108 119 3 2 61 23 128 46 139 47 281 120 513 264 88 55 161 99 163 97 1-1-5-21-13-45zm1043-52 20-53-27-6c-43-11-109-10-116 1-4 6 1 33 10 60 16 48 18 50 55 50s39-2 58-52zm-920-351c4-19-37-61-88-91l-32-18 15 28c8 16 22 46 31 67 13 33 19 38 43 35 17-2 29-10 31-21zm398-853c42-24 61-39 53-44-7-5-33 7-63 28-93 65-90 70 10 16zm-670-380c41-37 74-70 74-73 0-7-72-51-83-51-2 0-30 33-60 74l-55 73 21 22c12 11 23 21 25 21s37-30 78-66zm526-136c39-68 83-167 104-236l13-42-47-25c-26-13-43-24-39-25 4 0 26 9 48 21 23 11 42 19 43 17 7-11 182-462 201-519 13-38 20-69 15-69s-127 43-272 96c-572 208-622 224-650 196-18-18-36-14-43 9-9 27 9 47 28 31 11-9 16-2 26 37 20 80 58 127 236 296 93 88 196 186 229 217 34 32 63 58 66 58s22-28 42-62zm-162-715c168-63 355-132 415-152 77-27 111-44 113-56 11-54-37-40-413 120-319 136-496 218-450 208 17-3 167-58 335-120zm-431 89c12-23 86-399 101-515 11-82 11-89-6-102-11-8-22-15-25-15-18-1-32 38-39 103-5 49-16 91-37 133-17 33-38 85-48 115-12 35-31 66-55 89-31 29-39 43-42 79-3 44-2 45 57 87 67 48 80 52 94 26z"/> <path d="m4004 3138-19-23 23 19c12 11 22 21 22 23 0 8-8 2-26-19z"/> <path d="m4330 1115c-14-8-20-14-15-14 6 0 21 6 35 14s21 14 15 14c-5 0-21-6-35-14z"/> <path d="m4250 1080c-19-11-30-19-25-19 6 0 26 8 45 19s31 19 25 19c-5 0-26-8-45-19z"/> <path d="m4150 1035c-14-8-20-14-15-14 6 0 21 6 35 14s21 14 15 14c-5 0-21-6-35-14z"/> <path d="m4060 995c-14-8-20-14-15-14 6 0 21 6 35 14s21 14 15 14c-5 0-21-6-35-14z"/> <path d="m1132 5035c0-16 2-22 5-12 2 9 2 23 0 30-3 6-5-1-5-18z"/> <path d="m4042 5040c0-14 2-19 5-12 2 6 2 18 0 25-3 6-5 1-5-13z"/> <path d="m3113 5008c-14-18-53-95-53-105 1-4 14 18 31 50 30 59 45 74 34 35-5-21-5-21 6-5 14 23-2 45-18 25z"/> <path d="m3268 4913c-70-103-237-317-268-343-9-8-26-28-36-45-15-25-12-23 21 11 22 23 45 40 51 37 6-2 22 1 35 7 21 9 19 9-11 4l-34-7 29 39c16 22 53 67 82 101 57 68 211 293 200 293-2 0-33-44-69-97z"/> <path d="m4052 4990c0-28 35-174 36-150 1 8-7 51-18 95-10 44-18 69-18 55z"/> <path d="m1141 4985c-1-11 4-54 11-97 11-75 13-78 87-165 42-48 111-145 154-215 43-71 81-128 84-128s-1 10-9 23c-8 12-45 73-82 135-38 63-95 143-127 180-71 80-85 107-103 208-8 44-15 70-15 59z"/> <path d="m3343 4928c-4-7-8-16-8-20 0-3-13-16-28-28s-26-25-23-28 0-12-6-21c-8-10-4-9 9 3 13 10 20 22 18 26-3 4 7 15 21 25 14 9 23 19 20 22-3 4-1 12 5 20 6 7 9 13 6 13s-9-6-14-12z"/> <path d="m3086 4905c-9-26-7-32 5-12 6 10 9 21 6 23-2 3-7-2-11-11z"/> <path d="m892 4845c0-16 2-22 5-12 2 9 2 23 0 30-3 6-5-1-5-18z"/> <path d="m3066 4855c-9-26-7-32 5-12 6 10 9 21 6 23-2 3-7-2-11-11z"/> <path d="m3046 4805c-9-26-7-32 5-12 6 10 9 21 6 23-2 3-7-2-11-11z"/> <path d="m3234 4773c-15-20-23-33-16-29 13 8 56 66 49 66-3 0-17-17-33-37z"/> <path d="m902 4775c0-16 2-22 5-12 2 9 2 23 0 30-3 6-5-1-5-18z"/> <path d="m3026 4755c-9-26-7-32 5-12 6 10 9 21 6 23-2 3-7-2-11-11z"/> <path d="m3970 4519c-73-121-130-222-128-224 2-3 62 93 133 213 147 248 138 232 131 232-3 0-64-99-136-221z"/> <path d="m912 4705c0-16 2-22 5-12 2 9 2 23 0 30-3 6-5-1-5-18z"/> <path d="m2986 4655c-14-36-26-71-26-78 1-6 14 22 30 62 16 41 28 76 26 78s-15-26-30-62z"/> <path d="m3166 4638-18-33 21 25c18 22 26 40 18 40-1 0-11-15-21-32z"/> <path d="m923 4625c0-22 2-30 4-17 2 12 2 30 0 40-3 9-5-1-4-23z"/> <path d="m4857 4534c-37-31-67-58-67-60 0-3 25 15 56 41 31 25 63 49 72 54s14 12 11 15-35-19-72-50z"/> <path d="m3159 4563c-13-17-13-17 6-3 11 8 22 16 24 17 2 2 0 3-6 3s-17-8-24-17z"/> <path d="m1144 4485c0-49 1-71 3-48s2 64 0 90-3 8-3-42z"/> <path d="m0 4551c0-5 5-13 10-16s10-2 10 4c0 5-4 13-10 16-5 3-10 2-10-4z"/> <path d="m4905 4534-30-26 33 22c17 12 32 23 32 26 0 7-4 5-35-22z"/> <path d="m30 4530c0-5 5-10 11-10 5 0 7 5 4 10-3 6-8 10-11 10-2 0-4-4-4-10z"/> <path d="m5080 4512c-111-84-260-204-260-209 0-3 8 1 18 9 9 8 77 61 150 117 72 57 132 105 132 107 0 6-2 5-40-24z"/> <path d="m4815 4464-50-46 53 43c47 38 58 49 49 49-1 0-25-21-52-46z"/> <path d="m4725 4430c-27-21-53-36-57-34-4 3-8 0-8-6s-5-8-10-5c-6 4-9 1-8-7 2-7-4-13-13-13s-34-16-56-35c-21-19-62-51-91-70-28-19-52-38-52-42 0-14 330 218 346 243 8 14 2 10-51-31zm-105-73c0-2-10-12-22-23l-23-19 19 23c18 21 26 27 26 19z"/> <path d="m289 4412c11-16 28-35 38-43s3 5-16 29c-37 47-53 58-22 14z"/> <path d="m4729 4393-24-28 28 24c25 23 32 31 24 31-2 0-14-12-28-27z"/> <path d="m4270 4317c-78-76-246-214-480-394-52-40-89-73-84-73 24 0 436 325 560 443 45 42 86 77 91 77 4 0 14-28 20-62 7-35 15-76 18-93 6-28-1-36-112-135-310-275-352-313-358-329-3-9 22 11 57 45 35 33 133 121 218 196s166 148 180 163l25 27 17-54c21-68 23-39 2 33-9 29-24 94-33 143-10 49-22 91-27 93-5 1-47-35-94-80z"/> <path d="m1490 4350c6-11 13-20 16-20 2 0 0 9-6 20s-13 20-16 20c-2 0 0-9 6-20z"/> <path d="m4669 4344c-13-14-68-62-121-107-54-45-98-86-98-92 0-7 3-7 8 0 4 6 54 51 112 101 99 86 138 124 128 124-2 0-15-12-29-26z"/> <path d="m340 4346c0-2 8-10 18-17 15-13 16-12 3 4s-21 21-21 13z"/> <path d="m1520 4300c6-11 13-20 16-20 2 0 0 9-6 20s-13 20-16 20c-2 0 0-9 6-20z"/> <path d="m4422 4270c0-14 2-19 5-12 2 6 2 18 0 25-3 6-5 1-5-13z"/> <path d="m980 4245c13-14 26-25 28-25 3 0-5 11-18 25s-26 25-28 25c-3 0 5-11 18-25z"/> <path d="m488 4243c7-3 16-2 19 1 4 3-2 6-13 5-11 0-14-3-6-6z"/> <path d="m528 4233c7-3 16-2 19 1 4 3-2 6-13 5-11 0-14-3-6-6z"/> <path d="m580 4220c14-4 34-8 45-8 16 0 15 2-5 8-14 4-34 8-45 8-16 0-15-2 5-8z"/> <path d="m658 4203c7-3 16-2 19 1 4 3-2 6-13 5-11 0-14-3-6-6z"/> <path d="m698 4193c6-2 18-2 25 0 6 3 1 5-13 5s-19-2-12-5z"/> <path d="m748 4183c7-3 16-2 19 1 4 3-2 6-13 5-11 0-14-3-6-6z"/> <path d="m788 4173c6-2 18-2 25 0 6 3 1 5-13 5s-19-2-12-5z"/> <path d="m1128 4173c7-3 16-2 19 1 4 3-2 6-13 5-11 0-14-3-6-6z"/> <path d="m838 4163c7-3 16-2 19 1 4 3-2 6-13 5-11 0-14-3-6-6z"/> <path d="m878 4153c6-2 18-2 25 0 6 3 1 5-13 5s-19-2-12-5z"/> <path d="m940 4140c14-4 34-8 45-8 16 0 15 2-5 8-14 4-34 8-45 8-16 0-15-2 5-8z"/> <path d="m3743 4040c-17-39-29-70-27-70 7 0 66 131 61 136-2 2-17-28-34-66z"/> <path d="m1216 4061c-3-5 2-15 12-22 15-12 16-12 5 2-7 9-10 19-6 22 3 4 4 7 0 7-3 0-8-4-11-9z"/> <path d="m1830 4066c0-2 8-10 18-17 15-13 16-12 3 4s-21 21-21 13z"/> <path d="m1870 4036c0-2 8-10 18-17 15-13 16-12 3 4s-21 21-21 13z"/> <path d="m1910 4036c0-2 14-14 30-26 17-12 30-19 30-16 0 2-13 14-30 26-16 12-30 19-30 16z"/> <path d="m1320 4018c13-14 70-38 70-29 0 5-8 11-17 14-10 2-27 8-38 12-11 5-18 6-15 3z"/> <path d="m1405 3980c-3-5-1-10 4-10 6 0 11 5 11 10 0 6-2 10-4 10-3 0-8-4-11-10z"/> <path d="m1940 3986c0-2 14-14 30-26 17-12 30-19 30-16 0 2-13 14-30 26-16 12-30 19-30 16z"/> <path d="m1980 3986c0-2 8-10 18-17 15-13 16-12 3 4s-21 21-21 13z"/> <path d="m1430 3969c0-5 5-7 10-4 6 3 10 8 10 11 0 2-4 4-10 4-5 0-10-5-10-11z"/> <path d="m1455 3960c-3-5-2-10 4-10 5 0 13 5 16 10 3 6 2 10-4 10-5 0-13-4-16-10z"/> <path d="m1485 3950c-3-5-1-10 4-10 6 0 11 5 11 10 0 6-2 10-4 10-3 0-8-4-11-10z"/> <path d="m2035 3940c10-11 20-20 23-20s-3 9-13 20-20 20-23 20 3-9 13-20z"/> <path d="m3690 3939c-7-11-10-23-7-25 2-2 9 7 15 21 14 30 7 33-8 4z"/> <path d="m2010 3936c0-2 8-10 18-17 15-13 16-12 3 4s-21 21-21 13z"/> <path d="m1558 3923c6-2 18-2 25 0 6 3 1 5-13 5s-19-2-12-5z"/> <path d="m2210 3806c0-2 8-10 18-17 15-13 16-12 3 4s-21 21-21 13z"/> <path d="m4995 3760c21-22 41-40 44-40s-13 18-34 40-41 40-44 40 13-18 34-40z"/> <path d="m4291 3737c0-15-8-41-16-57-9-17-13-30-11-30 13 0 37 64 33 88l-4 27-2-28z"/> <path d="m1353 3680c0-30 2-43 4-27 2 15 2 39 0 55-2 15-4 2-4-28z"/> <path d="m3839 3673c-13-16-12-17 4-4s21 21 13 21c-2 0-10-8-17-17z"/> <path d="m1343 3560c0-25 2-35 4-22 2 12 2 32 0 45-2 12-4 2-4-23z"/> <path d="m5022 3555c0-16 2-22 5-12 2 9 2 23 0 30-3 6-5-1-5-18z"/> <path d="m1396 3473c-15-25-24-48-22-51 3-2 16 19 30 47 33 64 27 67-8 4z"/> <path d="m25 3486c17-7 44-16 60-19l30-6-30 13c-16 7-43 16-60 19l-30 6 30-13z"/> <path d="m3870 3490c-11-7-5-8 20-4 43 8 51 14 19 14-13 0-31-5-39-10z"/> <path d="m2080 3486c0-2 8-10 18-17 15-13 16-12 3 4s-21 21-21 13z"/> <path d="m5012 3460c0-19 2-27 5-17 2 9 2 25 0 35-3 9-5 1-5-18z"/> <path d="m3775 3445c-33-19-55-35-50-35 6 1 37 16 70 35s56 35 50 35c-5-1-37-16-70-35z"/> <path d="m5001 3405c-1-11-4-31-6-45l-6-25 11 25c6 13 9 33 7 45-4 19-4 19-6 0z"/> <path d="m1285 3333c-31-40-53-73-51-73 3 0 26 28 52 63 58 76 69 88 61 65s0-23 12 0c8 14 6 19-5 19-8 0-39-33-69-74z"/> <path d="m2195 3390c10-11 20-20 23-20s-3 9-13 20-20 20-23 20 3-9 13-20z"/> <path d="m3687 3404c-4-4-42-17-84-30-43-13-71-23-62-23 9-1 45 8 80 19 63 20 104 40 83 40-6 0-14-3-17-6z"/> <path d="m3473 3343c9-2 23-2 30 0 6 3-1 5-18 5-16 0-22-2-12-5z"/> <path d="m4753 3333c9-2 25-2 35 0 9 3 1 5-18 5s-27-2-17-5z"/> <path d="m4838 3315c2-14 6-25 8-25s4 11 4 25-4 25-9 25c-4 0-6-11-3-25z"/> <path d="m2268 3303c6-2 18-2 25 0 6 3 1 5-13 5s-19-2-12-5z"/> <path d="m1270 3270c-12-16-19-30-16-30 2 0 14 14 26 30 12 17 19 30 16 30-2 0-14-13-26-30z"/> <path d="m2061 3254c0-11 3-14 6-6 3 7 2 16-1 19-3 4-6-2-5-13z"/> <path d="m1204 3228-19-23 23 19c21 18 27 26 19 26-2 0-12-10-23-22z"/> <path d="m5043 3243c15-2 39-2 55 0 15 2 2 4-28 4s-43-2-27-4z"/> <path d="m2071 3220c0-8 4-24 9-35 5-13 9-14 9-5 0 8-4 24-9 35-5 13-9 14-9 5z"/> <path d="m2101 3104c0-11 3-14 6-6 3 7 2 16-1 19-3 4-6-2-5-13z"/> <path d="m5090 3110c-12-8-11-10 8-10 12 0 22 5 22 10 0 13-11 13-30 0z"/> <path d="m4324 3085c-3-8-4-20-2-27 3-7 7-1 10 15 6 29 1 36-8 12z"/> <path d="m4720 3050c-8-5-10-10-5-10 6 0 17 5 25 10s11 10 5 10c-5 0-17-5-25-10z"/> <path d="m2121 3024c0-11 3-14 6-6 3 7 2 16-1 19-3 4-6-2-5-13z"/> <path d="m790 3006c0-2 7-7 16-10 8-3 12-2 9 4-6 10-25 14-25 6z"/> <path d="m3190 2949c-12-23-20-43-18-45 3-2 14 17 26 41 27 56 20 60-8 4z"/> <path d="m857 2969c7-7 15-10 18-7s-2 9-12 12c-14 6-15 5-6-5z"/> <path d="m4810 2955c-7-9-11-17-9-20 3-2 10 5 17 15 14 24 10 26-8 5z"/> <path d="m900 2951c20-15 122-53 127-48 2 2-25 15-59 28-84 32-85 32-68 20z"/> <path d="m4780 2910c-9-6-10-10-3-10 6 0 15 5 18 10 8 12 4 12-15 0z"/> <path d="m1608 2903c12-2 30-2 40 0 9 3-1 5-23 4-22 0-30-2-17-4z"/> <path d="m1710 2889c60-10 108-9 55 2-22 4-53 8-70 7-22 0-19-3 15-9z"/> <path d="m4760 2880c-9-6-10-10-3-10 6 0 15 5 18 10 8 12 4 12-15 0z"/> <path d="m1845 2869c51-10 92-10 50 1-16 4-43 8-60 8-25 0-24-2 10-9z"/> <path d="m2976 2845c-3-9-6-22-5-28 0-7 5-1 10 12s8 26 5 28c-2 2-6-3-10-12z"/> <path d="m4735 2850c-3-5-2-10 4-10 5 0 13 5 16 10 3 6 2 10-4 10-5 0-13-4-16-10z"/> <path d="m2180 2840c8-5 22-9 30-9 10 0 8 3-5 9-27 12-43 12-25 0z"/> <path d="m4702 2778c-29-69-22-71 11-3 15 30 23 55 19 55s-18-23-30-52z"/> <path d="m4601 2794c0-11 3-14 6-6 3 7 2 16-1 19-3 4-6-2-5-13z"/> <path d="m2160 2780c8-5 20-10 25-10 6 0 3 5-5 10s-19 10-25 10c-5 0-3-5 5-10z"/> <path d="m2388 2773c7-3 16-2 19 1 4 3-2 6-13 5-11 0-14-3-6-6z"/> <path d="m2220 2757c40-24 311-118 324-113 7 3 6 5-2 5-7 1-79 25-160 55-189 69-192 70-162 53z"/> <path d="m4611 2754c0-11 3-14 6-6 3 7 2 16-1 19-3 4-6-2-5-13z"/> <path d="m4872 2740c0-14 2-19 5-12 2 6 2 18 0 25-3 6-5 1-5-13z"/> <path d="m4666 2695c-9-26-7-32 5-12 6 10 9 21 6 23-2 3-7-2-11-11z"/> <path d="m4861 2694c0-11 3-14 6-6 3 7 2 16-1 19-3 4-6-2-5-13z"/> <path d="m3078 2643c29-2 74-2 100 0s2 3-53 3-76-1-47-3z"/> <path d="m2568 2633c7-3 16-2 19 1 4 3-2 6-13 5-11 0-14-3-6-6z"/> <path d="m2897 2633c18-2 50-2 70 0 21 2 7 4-32 4-38 0-55-2-38-4z"/> <path d="m4841 2624c0-11 3-14 6-6 3 7 2 16-1 19-3 4-6-2-5-13z"/> <path d="m1103 2595c0-22 2-30 4-17 2 12 2 30 0 40-3 9-5-1-4-23z"/> <path d="m2608 2623c7-3 16-2 19 1 4 3-2 6-13 5-11 0-14-3-6-6z"/> <path d="m3965 2540c-19-38-33-70-30-70 2 0 21 32 40 70 19 39 33 70 30 70-2 0-21-31-40-70z"/> <path d="m4831 2584c0-11 3-14 6-6 3 7 2 16-1 19-3 4-6-2-5-13z"/> <path d="m3e3 2505c13-14 26-25 28-25 3 0-5 11-18 25s-26 25-28 25c-3 0 5-11 18-25z"/> <path d="m3517 2460c103-109 191-229 234-319 23-50 44-89 46-87 3 2-14 43-37 91-26 55-72 125-126 191-47 58-83 108-80 111s12 0 21-7c8-7 15-10 15-6 0 10 134-60 244-128 147-90 199-120 192-108-15 25-420 251-493 275-10 4-29 14-43 24-14 9-2-7 27-37z"/> <path d="m4880 2457c8-8 223-87 227-83 2 2-38 19-89 38-102 39-146 53-138 45z"/> <path d="m4802 2420c0-14 2-19 5-12 2 6 2 18 0 25-3 6-5 1-5-13z"/> <path d="m4792 2360c0-14 2-19 5-12 2 6 2 18 0 25-3 6-5 1-5-13z"/> <path d="m4781 2304c0-11 3-14 6-6 3 7 2 16-1 19-3 4-6-2-5-13z"/> <path d="m2561 2239c-6-18-11-37-10-43 0-6 7 7 15 28 8 22 12 41 10 43s-9-10-15-28z"/> <path d="m4773 2210c0-30 2-43 4-27 2 15 2 39 0 55-2 15-4 2-4-28z"/> <path d="m2696 2225c-9-26-7-32 5-12 6 10 9 21 6 23-2 3-7-2-11-11z"/> <path d="m2215 2210c-13-5-14-9-5-9 8 0 24 4 35 9 13 5 14 9 5 9-8 0-24-4-35-9z"/> <path d="m2095 2175c-38-13-65-23-60-24 6 0 44 10 85 23s68 24 60 24-46-10-85-23z"/> <path d="m2662 2145c-30-62-27-71 4-12 14 27 24 51 22 53-3 2-14-17-26-41z"/> <path d="m1922 2123c-40-14-72-27-69-29 2-2 41 9 88 25 46 16 77 29 69 29s-48-11-88-25z"/> <path d="m1774 2065c-10-8-14-14-9-14 6 0 19 6 29 14 11 8 15 15 10 15-6 0-19-7-30-15z"/> <path d="m2596 2005c-9-26-7-32 5-12 6 10 9 21 6 23-2 3-7-2-11-11z"/> <path d="m2830 1997c0-13 42-118 46-115 2 2-6 29-17 59-20 52-29 70-29 56z"/> <path d="m3201 1964c0-11 3-14 6-6 3 7 2 16-1 19-3 4-6-2-5-13z"/> <path d="m260 1925c13-14 26-25 28-25 3 0-5 11-18 25s-26 25-28 25c-3 0 5-11 18-25z"/> <path d="m300 1937c0-7 231-99 236-94 4 4-73 37-223 94-7 3-13 3-13 0z"/> <path d="m3211 1924c0-11 3-14 6-6 3 7 2 16-1 19-3 4-6-2-5-13z"/> <path d="m2202 1870c0-19 2-27 5-17 2 9 2 25 0 35-3 9-5 1-5-18z"/> <path d="m3221 1884c0-11 3-14 6-6 3 7 2 16-1 19-3 4-6-2-5-13z"/> <path d="m4578 1893c12-2 30-2 40 0 9 3-1 5-23 4-22 0-30-2-17-4z"/> <path d="m4724 1891c17-27 291-191 371-221 54-21 21 8-51 43-61 30-75 41-69 55 5 13 4 14-6 5-14-14-54 4-159 71-94 61-94 61-86 47z"/> <path d="m2882 1860c30-87 52-140 55-137 4 5-45 138-54 146-3 4-4-1-1-9z"/> <path d="m3231 1844c0-11 3-14 6-6 3 7 2 16-1 19-3 4-6-2-5-13z"/> <path d="m5009 1833c-13-16-12-17 4-4 9 7 17 15 17 17 0 8-8 3-21-13z"/> <path d="m4705 1812c31-19 116-135 154-209 12-24 24-43 26-43 10 0-54 116-99 180-43 59-76 89-101 90-5 0 4-8 20-18z"/> <path d="m2191 1804c0-11 3-14 6-6 3 7 2 16-1 19-3 4-6-2-5-13z"/> <path d="m3242 1805c-1-11 5-51 12-90 8-38 14-59 14-45 1 14-5 54-12 90-8 36-14 56-14 45z"/> <path d="m4034 1707c16-20 30-37 33-37 7 0-36 58-49 66-7 4 1-9 16-29z"/> <path d="m4890 1726c0-3 41-33 90-66 50-33 90-58 90-56 0 3-35 29-77 59-90 62-103 70-103 63z"/> <path d="m3272 1610c0-19 2-27 5-17 2 9 2 25 0 35-3 9-5 1-5-18z"/> <path d="m3282 1535c0-16 2-22 5-12 2 9 2 23 0 30-3 6-5-1-5-18z"/> <path d="m258 1519 33-36-146-73c-80-40-144-75-141-77 2-2 63 25 135 61s133 66 136 66 6-26 7-57l1-58 14 140-72 70 33-36z"/> <path d="m4420 1548c0-3 48-42 106-87s103-78 100-72c-4 5-46 40-94 77s-93 71-99 77c-7 5-13 7-13 5z"/> <path d="m4911 1503c11-25 16-50 12-53-4-4-33-17-63-28-30-12-49-21-43-21 7-1 36 8 65 19s54 20 55 20c4 0 36-114 36-127 0-7 4-13 8-13 3 0 34-19 68-41 34-23 64-39 66-37s-26 24-63 48c-63 42-67 48-84 105-22 75-22 70 5 83 21 11 21 11-5 6-25-6-30-2-48 40-10 25-22 46-24 46-3 0 4-21 15-47z"/> <path d="m3292 1465c0-16 2-22 5-12 2 9 2 23 0 30-3 6-5-1-5-18z"/> <path d="m3580 1460c-6-11-8-20-6-20 3 0 10 9 16 20s8 20 6 20c-3 0-10-9-16-20z"/> <path d="m348 1392c-29-44-70-122-64-122 2 0 19 26 36 58 18 31 40 67 48 80 8 12 12 22 9 22-2 0-16-17-29-38z"/> <path d="m3302 1405c0-16 2-22 5-12 2 9 2 23 0 30-3 6-5-1-5-18z"/> <path d="m3545 1400c-9-16-13-30-11-30 3 0 12 14 21 30 9 17 13 30 11 30-3 0-12-13-21-30z"/> <path d="m4700 1360c-19-11-29-19-23-20 7 0 27 9 45 20 42 25 24 25-22 0z"/> <path d="m3312 1330c0-19 2-27 5-17 2 9 2 25 0 35-3 9-5 1-5-18z"/> <path d="m4740 1340c35-24 54-31 30-11-14 11-29 21-35 21-5 0-3-5 5-10z"/> <path d="m4800 1306c0-2 8-10 18-17 15-13 16-12 3 4s-21 21-21 13z"/> <path d="m3322 1260c0-19 2-27 5-17 2 9 2 25 0 35-3 9-5 1-5-18z"/> <path d="m4840 1276c0-2 8-10 18-17 15-13 16-12 3 4s-21 21-21 13z"/> <path d="m4930 1204c30-27 85-76 121-109 55-50 53-48-11 15-42 42-96 91-121 109-34 26-32 22 11-15z"/> <path d="m3331 1194c0-11 3-14 6-6 3 7 2 16-1 19-3 4-6-2-5-13z"/> <path d="m2288 1023c7-3 16-2 19 1 4 3-2 6-13 5-11 0-14-3-6-6z"/> <path d="m2709 613c-13-16-12-17 4-4s21 21 13 21c-2 0-10-8-17-17z"/> <path d="m2664 584c-18-14-18-15 4-4 12 6 22 13 22 15 0 8-5 6-26-11z"/> <path d="m3549 544c-6-16-31-90-55-164-25-74-71-190-104-258-32-67-55-122-50-122 21 0 115 213 171 384 32 99 56 182 54 184-2 3-10-8-16-24z"/> <path d="m895 370-30-8 32-1c17 0 35 4 38 9 7 11 3 11-40 0z"/> <path d="m4950 275c52-52 97-95 100-95 2 0-38 43-90 95s-97 95-100 95c-2 0 38-43 90-95z"/> <path d="m828 353c6-2 18-2 25 0 6 3 1 5-13 5s-19-2-12-5z"/> <path d="m2593 290c0-30 2-43 4-27 2 15 2 39 0 55-2 15-4 2-4-28z"/> <path d="m47 286c-4-10-5-21-2-24 9-9 17 6 13 25-3 17-4 17-11-1z"/> <path d="m2711 254c6-18 174-253 177-249 5 5-147 232-166 247-10 8-14 9-11 2z"/> <path d="m31 243c0-5 4-17 9-28 8-18 9-17 9 8 1 15-3 27-9 27-5 0-10-3-9-7z"/> <path d="m2581 194c0-11 3-14 6-6 3 7 2 16-1 19-3 4-6-2-5-13z"/> <path d="m8 188c-5-12-1-19 12-23 35-11 69-45 63-62-4-11-2-14 5-9 7 4 12-11 15-46l3-53 2 63c1 38-2 62-9 62-5 0-7 5-3 12s3 8-4 4-12-1-12 8-3 15-7 14c-18-5-52 14-55 30s-4 16-10 0z"/> <path d="m2582 150c0-14 2-19 5-12 2 6 2 18 0 25-3 6-5 1-5-13z"/> <path d="m5090 146c0-2 8-10 18-17 15-13 16-12 3 4s-21 21-21 13z"/> <path d="m2556 75c-9-26-7-32 5-12 6 10 9 21 6 23-2 3-7-2-11-11z"/> <path d="m82 50c0-14 2-19 5-12 2 6 2 18 0 25-3 6-5 1-5-13z"/> </g> </svg>